<svg xmlns="http://www.w3.org/2000/svg" style="display:none;">
  <symbol id="twitter-icon" viewBox="-8 -8 32 33">
    <path fill="currentColor" d="M10.477 7.618 17.03 0h-1.553l-5.69 6.614L5.242 0H0l6.873 10.002L0 17.991h1.553l6.01-6.985 4.799 6.985h5.242L10.476 7.618ZM8.35 10.09l-.697-.996-5.54-7.925h2.385l4.471 6.396.697.996 5.812 8.314h-2.385L8.35 10.09Z"></path>
  </symbol>
  <symbol id="medium-icon" viewBox="-1 -2 32 33">
    <path fill="currentColor" d="M9.427 22.932c4.478 0 8.108-3.796 8.108-8.477 0-4.682-3.63-8.478-8.108-8.478-4.478 0-8.108 3.794-8.108 8.478 0 4.682 3.63 8.477 8.108 8.477ZM22.376 22.435c2.238 0 4.054-3.573 4.054-7.98s-1.815-7.98-4.054-7.98c-2.24 0-4.055 3.573-4.055 7.98 0 4.406 1.816 7.98 4.055 7.98ZM28.642 21.604c.787 0 1.426-3.2 1.426-7.15 0-3.948-.638-7.15-1.426-7.15-.787 0-1.426 3.203-1.426 7.15 0 3.95.638 7.15 1.426 7.15Z"></path>
  </symbol>
  <symbol id="discord-icon" viewBox="-4 -4 32 32">
    <path fill="currentColor" d="M15.717 12.177c0 1.018-.74 1.844-1.653 1.844-1.018 0-1.757-.826-1.653-1.844 0-1.018.74-1.844 1.653-1.844.913 0 1.757.826 1.653 1.844Zm-5.475-1.844c-.913 0-1.757.826-1.653 1.844 0 1.018.74 1.844 1.653 1.844 1.018 0 1.757-.826 1.653-1.844.104-1.018-.636-1.844-1.653-1.844Zm-3.814 7.294s.36-.427.655-.78c-1.24-.36-1.706-1.18-1.706-1.18s.145.073.355.177c.032 0 .073.032.104.042.073.032.104.042.135.063.386.135.772.25 1.123.334.61.136 1.34.187 2.128.011.386-.094.801-.23 1.258-.47.312-.156.655-.355 1.035-.636.271-.208.511-.448.74-.698.312.271.67.511 1.077.75-.104.125-.229.25-.365.386-.239.23-.511.48-.83.698-.344.24-.719.469-1.14.636-.492.198-1.035.323-1.61.407-.677.104-1.383.063-2.086-.042-.459-.063-.93-.167-1.396-.312-.302-.083-.595-.177-.883-.28-.042-.01-.073-.01-.104-.032-.021 0-.031-.01-.031-.01v.01l.063-.01Zm12.343 1.757V8.604c-2.71-1.19-5.251-1.19-5.251-1.19l-.26.292c3.187.948 4.658 2.397 4.658 2.397-2.03-1.125-4.071-1.582-5.963-1.582-.604 0-1.167.062-1.737.166-.365.063-1.23.29-2.302.927-.427.25-.677.448-.677.448s1.47-1.427 4.656-2.376l-.198-.25s-2.541 0-5.252 1.19v10.8c2.71 1.19 5.251 1.19 5.251 1.19l.26-.344c-3.187-.948-4.658-2.397-4.658-2.397 2.03 1.125 4.071 1.582 5.963 1.582.604 0 1.167-.062 1.737-.166.365-.062 1.23-.29 2.302-.927.427-.25.677-.448.677-.448s-1.47 1.436-4.656 2.376l.26.302s2.531-.01 5.251-1.2Z"></path>
  </symbol>
  <symbol id="telegram-icon" viewBox="-4 -4 32 32">
    <path fill="currentColor" d="M4.734 11.553c-.438-.135-.906-.198-1.363-.26-1.038-.145-2.086-.302-3.134-.459-.334-.052-.636.26-.531.531.104.26.407.438.719.489.905.135 1.82.271 2.724.438.553.104 1.105.229 1.657.302.416.063.79-.145 1.104-.407.865-.677 1.676-1.407 2.53-2.083.636-.531 1.24-1.084 1.876-1.615.855-.73 1.737-1.426 2.614-2.167.073-.062.198-.145.073-.25-.125-.115-.239.042-.312.083-.937.479-1.84 1.01-2.77 1.478-.989.5-1.968 1.02-2.957 1.52a.64.64 0 0 0-.26.239c-.312.552-.594 1.104-.906 1.656-.28.51-.541 1.052-.791 1.563a3.994 3.994 0 0 1-.073.125c-.094.166-.302.198-.469.156a109.588 109.588 0 0 1-1.72-.49Zm-.26 1.322c.125.042.271.094.417.145.635.188 1.271.365 1.907.552.114.031.208.052.312.104.083.042.145.083.208.135.26.177.511.104.74-.042.219-.145.427-.344.604-.541.302-.333.594-.677.885-1.01.667-.76 1.404-1.467 2.072-2.239.552-.625 1.146-1.229 1.698-1.865.323-.365.667-.698.99-1.052.104-.115.125-.188 0-.302-.104-.115-.187-.083-.281-.021-.667.417-1.334.844-2.01 1.25-.385.24-.76.51-1.125.76-.677.469-1.354.948-2.03 1.417-.062.042-.156.062-.198.115-.25.292-.406.677-.563 1.03-.229.531-.469 1.052-.698 1.583a.857.857 0 0 1-.145.24.558.558 0 0 1-.521.229 17.813 17.813 0 0 1-1.885-.489Z"></path>
  </symbol>
  <symbol id="logo-mark" viewBox="0 0 69 58">
    <path fill="currentColor" d="M34.57 0c-6.717 0-12.91 2.724-17.39 7.118L34.57 24.878l17.39-17.76C47.48 2.724 41.287 0 34.57 0ZM0 34.43c0 6.718 2.723 12.91 7.118 17.39L24.878 34.43 7.118 17.04C2.723 21.52 0 27.713 0 34.43ZM61.88 17.04 44.12 34.43l17.76 17.39C66.277 47.34 69 41.147 69 34.43c0-6.717-2.723-12.91-7.12-17.39Zm-27.31 17.39-17.76 17.76C21.66 55.276 27.853 58 34.57 58c6.717 0 12.91-2.724 17.39-7.12L34.57 34.43Z"></path>
  </symbol>
</svg>
